<svg xmlns="http://www.w3.org/2000/svg" width="512" height="512" viewBox="0 0 512 512" version="1.1">
	<path d="M 233 13.689 C 226.083 14.417, 207.335 18.180, 199 20.513 C 147.635 34.889, 97.634 66.654, 67.605 103.987 C 42.308 135.437, 22.448 178.514, 15.500 217 C 12.006 236.354, 12.393 273.034, 16.297 292.500 L 17.500 298.500 27.887 298.786 L 38.273 299.073 37.713 295.286 C 37.405 293.204, 36.576 287.900, 35.870 283.500 C 35.138 278.935, 34.594 267.128, 34.603 256 C 34.616 240.227, 35.037 234.269, 36.805 224.824 C 46.721 171.848, 77.858 118.867, 116.277 89.599 C 118.355 88.016, 120.283 86.949, 120.562 87.229 C 120.841 87.508, 120.562 89.708, 119.942 92.118 C 119.321 94.528, 118.452 104.600, 118.010 114.500 C 116.987 137.401, 116.721 138.607, 112.367 140.044 C 108.448 141.337, 108.486 141.289, 97.902 158.500 C 75.192 195.431, 64.375 228.822, 62.347 268.250 L 61.692 281 72.212 281 L 82.732 281 83.253 265.750 C 83.705 252.498, 84.243 248.697, 87.360 236.740 C 89.333 229.172, 93.213 217.472, 95.983 210.740 C 100.881 198.835, 113.489 175.963, 115.500 175.334 C 116.050 175.162, 118.372 178.954, 120.659 183.761 C 125.306 193.526, 130.034 199.552, 136.588 204.061 C 139.013 205.729, 141.623 208.311, 142.388 209.797 C 144.153 213.225, 146 225.064, 146 232.942 L 146 239 138.135 239 C 127.996 239, 126.210 240.322, 122.596 250.501 C 121.116 254.671, 118.074 261.918, 115.837 266.604 C 111.224 276.266, 113.022 274.812, 87.500 289.517 C 61.538 304.476, 51.627 310.538, 38 319.794 C 31.125 324.464, 25.322 328.437, 25.103 328.623 C 24.348 329.265, 30.280 345.553, 35.528 357.244 C 44.844 378, 56.232 395.527, 74.842 417.750 L 83.425 428 97.577 428 L 111.728 428 119.347 434.007 C 136.597 447.609, 156.243 458.740, 178.370 467.450 C 184.898 470.019, 205.042 476.339, 223.133 481.493 L 256.027 490.864 264.763 487.902 C 269.568 486.273, 282.050 482.500, 292.500 479.517 C 336.584 466.935, 357.911 457.568, 384.500 439.113 L 400.500 428.007 412 427.929 C 425.878 427.835, 428.060 427.492, 430 425.102 C 430.825 424.085, 435.354 418.584, 440.064 412.877 C 460.386 388.254, 473 367.082, 483.613 339.788 C 485.476 334.996, 487 330.441, 487 329.666 C 487 328.814, 485.516 328.010, 483.250 327.634 C 480.886 327.242, 471.186 321.805, 457 312.919 C 430.126 296.086, 427.142 294.453, 426.482 296.220 C 426.219 296.924, 425.890 313.700, 425.752 333.500 L 425.500 369.500 345 369.715 L 264.500 369.931 261.222 365.470 C 257.144 359.922, 253.721 357.597, 250.757 358.362 C 249.516 358.683, 246.590 361.433, 244.255 364.473 L 240.010 370 162.518 370 L 85.025 370 82.665 366.250 C 73.998 352.480, 63.910 333.653, 64.184 331.758 C 64.705 328.155, 73.207 322.676, 97.912 310.025 L 121.324 298.036 128.412 303.746 C 138.150 311.590, 152.428 325.453, 156.544 331.060 C 159.883 335.608, 160.097 335.720, 166.727 336.381 C 170.452 336.752, 174.850 337.281, 176.500 337.556 C 179.198 338.005, 179.775 337.597, 182.225 333.506 C 183.724 331.004, 185.701 328.668, 186.619 328.316 C 187.658 327.917, 193.712 330.380, 202.653 334.838 C 210.553 338.777, 217.239 342, 217.509 342 C 218.729 342, 217.735 339.569, 214.540 334.735 C 212.638 331.856, 210.382 327.813, 209.527 325.750 C 208.025 322.125, 208.042 322, 210.039 322 C 212.875 322, 226.325 325.053, 227.249 325.906 C 227.661 326.286, 227.017 328.919, 225.819 331.756 C 224.003 336.053, 223.835 337.342, 224.811 339.485 C 226.830 343.915, 228.839 343.730, 233.122 338.719 C 235.273 336.203, 239.838 332.263, 243.266 329.964 L 249.500 325.785 259 326.443 C 276.954 327.686, 295.603 329.899, 306.346 332.061 C 312.264 333.253, 317.289 334.045, 317.512 333.821 C 317.735 333.598, 316.264 330.094, 314.244 326.033 C 311.656 320.831, 308.493 316.606, 303.536 311.730 C 296.232 304.546, 296.639 303.803, 305.444 308.248 C 311.697 311.404, 325.290 320.485, 327.688 323.107 C 328.891 324.423, 334.342 333.375, 339.801 343 L 349.727 360.500 385.364 360.763 L 421 361.025 421 326.013 C 421 306.756, 421.071 290.663, 421.158 290.250 C 421.244 289.837, 416.407 286.676, 410.408 283.224 L 399.500 276.949 399.236 308.973 L 398.972 340.997 392.736 345.539 C 388.524 348.606, 385.689 349.986, 384 349.790 L 381.500 349.500 380.788 323.500 C 380.397 309.200, 380.328 294.920, 380.635 291.766 L 381.193 286.031 389.346 280.384 C 393.831 277.278, 398.953 273.367, 400.729 271.692 L 403.958 268.649 391.828 260.768 L 379.698 252.887 380.247 215.969 L 380.795 179.052 377.332 178.402 C 374.289 177.832, 373.481 178.162, 370.671 181.126 C 368.912 182.982, 362.754 188.374, 356.986 193.108 C 344.471 203.383, 318 227.777, 318 229.036 C 318 229.526, 327.225 236.051, 338.500 243.536 L 359 257.146 359 263.937 L 359 270.729 340.586 285.364 C 330.459 293.414, 321.506 300, 320.691 300 C 319.876 300, 316.125 298.698, 312.355 297.107 C 308.585 295.516, 302.881 293.399, 299.681 292.403 C 294.603 290.822, 293.251 289.814, 289.073 284.499 C 284.653 278.874, 270.639 265.455, 256.750 253.548 C 253.588 250.837, 251 248.304, 251 247.920 C 251 247.536, 255.206 240.971, 260.346 233.332 C 270.399 218.393, 272.278 214.054, 274.416 200.848 C 275.175 196.157, 276.825 190.335, 278.083 187.909 C 279.950 184.308, 280.503 181.142, 281.100 170.629 C 281.802 158.292, 281.998 157.422, 285.854 149.629 C 289.244 142.776, 289.877 140.520, 289.885 135.256 C 289.894 129.972, 290.442 128.035, 293.448 122.660 C 296.112 117.895, 297 115.133, 297 111.609 L 297 106.909 300.750 107.586 C 308.399 108.967, 322.810 114.349, 333 119.631 C 347.469 127.132, 359.374 136.180, 373.500 150.411 C 392.029 169.078, 404.810 188.674, 414.844 213.799 C 423.096 234.461, 426.404 249.024, 428.578 274.250 L 429.159 281 439.673 281 L 450.187 281 449.514 271.250 C 446.710 230.569, 435.025 195.808, 413.070 162.835 C 384.410 119.794, 343.844 91.734, 295.728 81.671 C 285.328 79.496, 283.341 78.735, 278.675 75.135 C 275.771 72.894, 270.111 69.568, 266.097 67.743 C 259.827 64.891, 258.287 63.656, 255.150 58.962 C 249.968 51.208, 243.532 48.223, 223.500 44.286 C 211.273 41.883, 228.510 38.738, 254 38.722 C 288.678 38.699, 316.854 45.407, 349.500 61.456 C 396.622 84.622, 432.454 119.791, 454.485 164.500 C 465.364 186.579, 472.933 210.600, 476.423 234.128 C 478.415 247.555, 478.448 273.092, 476.491 286.860 C 475.681 292.558, 475.266 297.621, 475.568 298.110 C 475.871 298.600, 480.086 299, 484.937 299 C 491.483 299, 494.070 298.621, 494.977 297.527 C 498.832 292.883, 500.831 249.756, 498.107 230 C 496.247 216.508, 489.598 190.652, 484.221 176 C 462.112 115.751, 417.211 66.860, 356.500 36.928 C 322.807 20.316, 290.378 12.819, 253.699 13.160 C 244.239 13.248, 234.925 13.486, 233 13.689 M 170.251 100.545 C 166.064 101.673, 157.696 105.217, 156.217 106.490 C 155.492 107.113, 159.465 116.845, 161.603 119.683 C 162.921 121.434, 164 123.162, 164 123.522 C 164 123.883, 161.946 126.175, 159.436 128.614 C 156.787 131.189, 153.555 135.863, 151.734 139.754 C 148.857 145.904, 148.594 147.325, 148.554 156.978 C 148.503 169.291, 149.988 173.542, 157.157 181.614 C 159.599 184.363, 162.220 188.117, 162.981 189.955 C 164.307 193.155, 164.248 193.390, 161.604 195.499 C 158.951 197.614, 158.888 197.874, 159.994 202.100 C 162.079 210.064, 168.657 222.312, 173.176 226.647 C 178.274 231.535, 203.345 245.857, 208.178 246.642 C 213.520 247.508, 236.734 245.189, 240.092 243.453 C 243.210 241.840, 246.065 237.767, 254.933 222.282 C 261.500 210.815, 262.873 206.868, 263.666 197.182 C 264.191 190.770, 264.808 188.779, 267.398 185.139 C 270.400 180.919, 270.517 180.356, 271.014 167.639 C 271.439 156.785, 271.946 153.508, 273.928 148.799 C 275.916 144.076, 276.107 142.833, 275.041 141.549 C 273.363 139.527, 269.310 139.590, 261.958 141.750 C 255.138 143.754, 254.302 145, 259.777 145 C 264.779 145, 268 147.331, 268 150.950 C 268 155.513, 263.607 155.847, 260.045 151.555 C 258.288 149.437, 257 149.601, 257 151.941 C 257 153.009, 256.438 154.243, 255.750 154.685 C 254.945 155.201, 255.746 155.667, 258 155.994 C 260.219 156.315, 261.500 157.049, 261.500 158 C 261.500 161.454, 245.659 159.697, 242.070 155.845 C 240.824 154.507, 239.984 154.217, 239.522 154.965 C 238.374 156.822, 241.030 170.004, 244.245 178.413 C 247.998 188.228, 247.492 190.399, 240.577 194.144 C 233.772 197.829, 229.370 198.389, 225.565 196.053 C 223.262 194.639, 221.344 194.303, 217.851 194.704 C 213.643 195.187, 213.037 194.986, 211.469 192.593 C 209.843 190.112, 209.840 189.834, 211.422 188.086 C 212.804 186.559, 214.946 186.153, 223.304 185.837 C 228.912 185.624, 234.029 185.118, 234.676 184.712 C 235.554 184.161, 235.373 182.302, 233.962 177.366 C 231.586 169.060, 230.556 160.183, 231.427 155.538 C 232.835 148.034, 243.105 140.259, 261.332 132.900 L 272.165 128.526 274.975 131.970 L 277.786 135.414 278.539 126.457 C 279.182 118.811, 279.004 116.695, 277.323 112 L 275.353 106.500 267.426 105.325 C 255.992 103.630, 255.760 103.759, 263.500 107.521 C 270.491 110.919, 275.538 115.320, 274.455 117.072 C 273.368 118.831, 260.711 117.993, 249.120 115.395 C 242.729 113.963, 230.750 110.607, 222.500 107.938 C 194.728 98.953, 182.558 97.231, 170.251 100.545 M 170.500 135.860 C 164.534 138.702, 160.110 142.443, 161.304 143.637 C 161.648 143.981, 166.112 143.688, 171.225 142.986 C 180.416 141.724, 192.547 142.305, 191.526 143.958 C 191.250 144.404, 189.070 145.062, 186.680 145.421 C 184.291 145.779, 180.573 147.002, 178.418 148.139 C 174.255 150.334, 169 154.829, 169 156.194 C 169 156.645, 172.262 156.733, 176.250 156.391 L 183.500 155.767 180 158.843 C 176.794 161.661, 176.687 161.922, 178.731 161.959 C 179.959 161.982, 184.009 161.548, 187.731 160.996 C 191.454 160.443, 196.637 159.741, 199.250 159.434 C 202.674 159.033, 204 158.437, 204 157.300 C 204 155.977, 203.027 155.810, 197.979 156.268 L 191.959 156.814 195.627 153.899 L 199.296 150.983 203.576 153.492 C 208.781 156.542, 211.585 156.696, 212.297 153.971 C 212.589 152.856, 213.204 152.009, 213.664 152.090 C 217.100 152.694, 218.116 151.892, 217.813 148.813 C 217.551 146.142, 216.610 145.099, 212 142.367 C 208.975 140.574, 205.150 138.817, 203.500 138.462 C 201.850 138.107, 196.694 136.732, 192.043 135.408 C 181.150 132.306, 177.813 132.376, 170.500 135.860 M 121.667 152.667 C 120.262 154.072, 121.135 158.333, 124.864 168.259 C 131.277 185.334, 135.295 192, 139.174 192 C 142.054 192, 141.330 189.503, 137 184.500 C 133.511 180.469, 133 179.255, 133 174.998 C 133 172.314, 133.450 169.840, 134 169.500 C 135.813 168.380, 135.045 164.462, 132.104 159.826 C 128.207 153.681, 123.726 150.607, 121.667 152.667 M 221.500 208.253 C 212.700 208.687, 203.588 208.817, 201.250 208.541 C 197.247 208.067, 197 208.184, 197 210.544 C 197 212.263, 197.747 213.334, 199.382 213.955 C 200.693 214.454, 202.721 216.204, 203.889 217.845 C 205.058 219.486, 208.033 221.806, 210.501 223 C 214.468 224.921, 216.314 225.133, 226.441 224.836 L 237.894 224.500 241.447 221.054 C 243.401 219.158, 245 216.996, 245 216.247 C 245 215.499, 246.437 213.575, 248.193 211.970 C 249.950 210.366, 251.062 208.729, 250.665 208.331 C 249.675 207.341, 240.466 207.317, 221.500 208.253 M 211.738 214.757 C 210.769 214.974, 210.233 215.567, 210.547 216.076 C 211.175 217.093, 230.155 217.333, 233.750 216.370 C 234.988 216.038, 236 215.397, 236 214.945 C 236 214.140, 215.215 213.980, 211.738 214.757 M 157.512 228.500 C 158.423 240.812, 159.920 248.924, 162.057 253.111 C 163.457 255.856, 169.547 261.340, 183.752 272.646 C 205.675 290.095, 226.476 308.313, 230.501 313.590 C 231.947 315.486, 233.561 316.771, 234.088 316.446 C 235.552 315.541, 241 304.304, 241 302.189 C 241 301.162, 239.897 299.818, 238.548 299.204 C 235.618 297.869, 233.488 294.014, 232.546 288.342 C 231.353 281.162, 230.659 280.762, 217.177 279.478 C 210.479 278.840, 204.409 277.755, 203.550 277.041 C 200.665 274.648, 201.741 272.163, 206.700 269.769 C 209.284 268.521, 211.565 266.959, 211.767 266.297 C 211.970 265.633, 209.077 263.539, 205.318 261.628 C 201.568 259.721, 195.874 255.921, 192.664 253.183 C 189.454 250.445, 183.063 245.904, 178.462 243.092 C 170.180 238.031, 167.286 235.205, 160.445 225.500 L 156.921 220.500 157.512 228.500 M 133.098 261.544 C 131.397 266.243, 129.330 271.395, 128.503 272.994 C 127.676 274.593, 127 276.131, 127 276.412 C 127 276.693, 134.762 283.867, 144.250 292.354 C 153.738 300.841, 164.108 310.138, 167.296 313.013 C 170.484 315.889, 173.230 318.075, 173.400 317.871 C 173.569 317.667, 175.402 314.800, 177.472 311.500 C 179.543 308.200, 182.678 303.700, 184.439 301.500 C 186.200 299.300, 187.953 296.970, 188.335 296.322 C 188.771 295.582, 182.434 289.780, 171.264 280.693 C 161.494 272.745, 150.125 263.273, 146 259.644 C 141.875 256.015, 137.980 253.036, 137.345 253.023 C 136.709 253.010, 134.798 256.845, 133.098 261.544 M 269.696 291.250 C 261.855 301.842, 259.015 306, 259.622 306 C 259.999 306, 262.732 303.706, 265.697 300.902 C 270.300 296.549, 271.482 295.903, 273.793 296.477 C 277.754 297.459, 280.721 300.666, 282.992 306.417 L 284.999 311.500 284.368 306.500 C 283.458 299.276, 281.273 294.447, 277.362 291.013 C 275.474 289.356, 273.519 288, 273.016 288 C 272.513 288, 271.019 289.462, 269.696 291.250 M 344.702 301.750 C 338.840 306.012, 334.097 309.725, 334.161 310 C 334.226 310.275, 339.391 315.428, 345.639 321.452 L 357 332.403 357 313.202 C 357 302.641, 356.631 294, 356.180 294 C 355.729 294, 350.564 297.488, 344.702 301.750 M 248.188 370.750 C 241.907 384.394, 240.534 391.688, 243.161 397.453 C 244.268 399.885, 244.697 400, 252.625 400 C 262.252 400, 263 399.367, 263 391.222 C 263 383.762, 255.432 364, 252.575 364 C 251.872 364, 249.898 367.038, 248.188 370.750 M 219.085 385.880 C 215.665 390.684, 215.067 393.255, 216.551 396.783 C 217.891 399.969, 217.915 399.978, 223.698 399.401 C 226.889 399.082, 231.412 399.264, 233.750 399.804 C 236.088 400.345, 237.998 400.498, 237.996 400.144 C 237.989 398.923, 233.789 392.493, 231.148 389.658 C 229.692 388.096, 226.840 385.963, 224.811 384.919 L 221.121 383.021 219.085 385.880 M 281.369 386.962 C 276.010 390.035, 269 397.316, 269 399.808 C 269 400.920, 269.870 401.118, 272.750 400.661 C 274.813 400.334, 279.200 399.771, 282.500 399.409 C 286.883 398.930, 288.966 398.179, 290.228 396.626 C 293.373 392.755, 291.975 383.989, 288.215 384.009 C 287.272 384.015, 284.191 385.343, 281.369 386.962 M 125.360 395.504 C 125 396.443, 125.434 397.863, 126.368 398.797 C 127.841 400.269, 131.644 400.407, 163.248 400.128 C 182.630 399.957, 198.827 399.607, 199.243 399.350 C 200.469 398.592, 200.109 395.252, 198.750 394.776 C 198.063 394.535, 181.411 394.229, 161.747 394.095 C 129.297 393.875, 125.935 394.005, 125.360 395.504 M 307.423 395.303 C 305.274 396.506, 307.383 399.722, 310.742 400.367 C 312.259 400.658, 327.402 400.582, 344.393 400.198 C 371.929 399.576, 375.403 399.315, 376.358 397.798 C 376.947 396.862, 377.139 395.806, 376.785 395.452 C 375.836 394.503, 309.108 394.360, 307.423 395.303 M 221.008 402.974 C 218.007 404.871, 221.681 406.005, 232.301 406.462 C 241.110 406.840, 243 406.669, 243 405.496 C 243 404.712, 242.130 403.605, 241.066 403.035 C 238.653 401.744, 223.029 401.696, 221.008 402.974 M 249.750 402.739 C 246.588 402.937, 244 403.437, 244 403.850 C 244 406.072, 247.004 407, 254.200 407 C 261.853 407, 262 406.953, 262 404.500 C 262 401.769, 262.974 401.909, 249.750 402.739 M 266.532 403.242 C 265.689 403.714, 265 404.815, 265 405.689 C 265 407.020, 265.854 407.176, 270.250 406.648 C 273.137 406.301, 277.847 406.013, 280.715 406.009 C 284.798 406.002, 286.149 405.590, 286.940 404.111 C 287.901 402.316, 287.458 402.227, 278.008 402.304 C 272.539 402.348, 267.375 402.770, 266.532 403.242 M 228.483 410.041 L 225.500 410.583 227.997 411.959 C 229.913 413.015, 236.139 413.351, 254.733 413.404 C 277.634 413.470, 279.081 413.364, 280.959 411.487 C 282.942 409.504, 282.890 409.500, 257.206 409.500 C 243.049 409.500, 230.123 409.744, 228.483 410.041 M 233.187 416.615 C 235.745 419.173, 247.728 422, 256.015 422 C 261.496 422, 265.191 421.373, 269.464 419.718 C 275.978 417.195, 278.524 414.414, 272.816 416.055 C 268.116 417.408, 239.232 417.461, 235.047 416.125 C 231.890 415.118, 231.731 415.159, 233.187 416.615 M 131 419 C 131 419.550, 131.918 420.918, 133.040 422.040 C 135.020 424.020, 136.006 424.071, 166.991 423.790 C 199.714 423.493, 202.058 423.199, 200.664 419.567 C 200.134 418.186, 195.962 418, 165.531 418 C 143.177 418, 131 418.353, 131 419 M 303 419.879 C 303 423.932, 307.190 424.357, 339.834 423.616 C 363.672 423.075, 370.805 422.616, 371.868 421.556 C 375.136 418.299, 372.244 418, 337.441 418 C 304.408 418, 303 418.077, 303 419.879 M 227.982 425.547 C 226.495 429.458, 227.118 431.513, 229.764 431.429 C 230.994 431.389, 236.083 431.277, 241.073 431.179 C 249.123 431.020, 250.109 430.802, 249.812 429.250 C 249.570 427.984, 248.197 427.352, 244.852 426.967 C 242.308 426.673, 239.591 425.906, 238.814 425.260 C 238.037 424.615, 235.521 423.787, 233.223 423.420 C 229.309 422.794, 228.978 422.928, 227.982 425.547 M 268 426.001 C 265.525 427.014, 262.488 427.604, 261.250 427.313 C 259.492 426.899, 259 427.219, 259 428.775 C 259 430.605, 259.835 430.805, 269.250 431.231 C 274.887 431.485, 279.888 431.352, 280.363 430.934 C 280.844 430.510, 280.810 428.922, 280.285 427.337 C 279.516 425.014, 278.726 424.469, 275.923 424.330 C 274.040 424.236, 270.475 424.988, 268 426.001" stroke="none" fill="black" fill-rule="evenodd"/>
</svg>